# xmcd
#
# Track frame offsets:
# 150
# 12662
# 25482
# 36730
# 47573
# 59595
# 69734
# 83913
# 100416
# 113051
# 128727
# 142311
# 157442
# 170103
# 181101
# 199671
# 213639
# 228557
# 246047
# 262321
# 278932
# 293327
# 306499
# 323131
#
# Disc length: 4476 seconds
#
# Revision: 2
# Processed by: cddbd v1.4PL0 Copyright (c) Steve Scherf et al.
# Submitted via: Axialis_AX_CDPlayer 2.6
#
DISCID=86117a18
DTITLE=Elmore James - King Of The Slide Guitar (Vol 2)
DYEAR=1900
DGENRE=
TTITLE0=Got To Move
TTITLE1=Shake Your Moneymaker
TTITLE2=Look On Yonder Wall
TTITLE3=Sunnyland Train
TTITLE4=Mean Mistreatin' Mama
TTITLE5=Go Back Home Again
TTITLE6=You Know Your Wrong
TTITLE7=You Know You Done Me Wrong
TTITLE8=I've Got A Right To Love My Baby
TTITLE9=Every Day I Have The Blues
TTITLE10=Dust My Broom
TTITLE11=It Hurts Me Too
TTITLE12=Talk To Me Baby
TTITLE13=Can't Stop Loving My Baby
TTITLE14=She's Got To Go
TTITLE15=Hand In Hand
TTITLE16=Pickin' The Blues
TTITLE17=Twelve Year Old Boy
TTITLE18=I Believe
TTITLE19=I Gotta Go Now
TTITLE20=Up Jumped Elmore
TTITLE21=Make My Dreams Come True
TTITLE22=Back In Mississippi (A Conversation)
TTITLE23=Blacksnake Blues
EXTD=
EXTT0=
EXTT1=
EXTT2=
EXTT3=
EXTT4=
EXTT5=
EXTT6=
EXTT7=
EXTT8=
EXTT9=
EXTT10=
EXTT11=
EXTT12=
EXTT13=
EXTT14=
EXTT15=
EXTT16=
EXTT17=
EXTT18=
EXTT19=
EXTT20=
EXTT21=
EXTT22=
EXTT23=
PLAYORDER=
